<mxfile host="app.diagrams.net" modified="2023-07-31T21:04:44.321Z" agent="Mozilla/5.0 (Macintosh; Intel Mac OS X 10_15_7) AppleWebKit/605.1.15 (KHTML, like Gecko) Version/16.5 Safari/605.1.15" version="21.6.6" etag="ZaJIXR2_hSyi-uc-41ug" type="github">
  <diagram name="Page-1" id="b2OqXkSW_5ql-8PAyslN">
    <mxGraphModel>
      <root>
        <mxCell id="0" />
        <mxCell id="1" parent="0" />
      </root>
    </mxGraphModel>
  </diagram>
</mxfile>
